<svg viewBox="0 0 30 30" xmlns="http://www.w3.org/2000/svg" xmlns:xlink="http://www.w3.org/1999/xlink" width="30.000000" height="30.000000" fill="none" customFrame="#000000">
	<g id="Instagram">
		<g id="Group">
			<g id="Group">
				<path id="Vector" d="M20.625 0L9.375 0C4.19812 0 0 4.19812 0 9.375L0 20.625C0 25.8019 4.19812 30 9.375 30L20.625 30C25.8019 30 30 25.8019 30 20.625L30 9.375C30 4.19812 25.8019 0 20.625 0ZM27.1875 20.625C27.1875 24.2437 24.2437 27.1875 20.625 27.1875L9.375 27.1875C5.75625 27.1875 2.8125 24.2437 2.8125 20.625L2.8125 9.375C2.8125 5.75625 5.75625 2.8125 9.375 2.8125L20.625 2.8125C24.2437 2.8125 27.1875 5.75625 27.1875 9.375L27.1875 20.625Z" fill="rgb(0,0,0)" fill-rule="nonzero" transform="matrix(-4.37114e-08,-1,1,-4.37114e-08,0,30)" />
			</g>
		</g>
		<g id="Group">
			<g id="Group">
				<path id="Vector" d="M7.5 0C3.35812 0 0 3.35812 0 7.5C0 11.6419 3.35812 15 7.5 15C11.6419 15 15 11.6419 15 7.5C15 3.35812 11.6419 0 7.5 0ZM7.5 12.1875C4.91625 12.1875 2.8125 10.0837 2.8125 7.5C2.8125 4.91437 4.91625 2.8125 7.5 2.8125C10.0837 2.8125 12.1875 4.91437 12.1875 7.5C12.1875 10.0837 10.0837 12.1875 7.5 12.1875Z" fill="rgb(0,0,0)" fill-rule="nonzero" transform="matrix(-4.37114e-08,-1,1,-4.37114e-08,7.5,22.5)" />
			</g>
		</g>
		<g id="Group">
			<g id="Group">
				<path id="Vector" d="M0.999375 1.99874C1.55131 1.99874 1.99875 1.55131 1.99875 0.999371C1.99875 0.447434 1.55131 0 0.999375 0C0.447435 0 0 0.447434 0 0.999371C0 1.55131 0.447435 1.99874 0.999375 1.99874Z" fill="rgb(0,0,0)" fill-rule="evenodd" transform="matrix(-4.37114e-08,-1,1,-4.37114e-08,5.93811,7.93652)" />
			</g>
		</g>
	</g>
</svg>
