<?xml version="1.0" encoding="utf-8"?>
<svg width="20" height="20" viewBox="0 0 20 20" fill="none" xmlns="http://www.w3.org/2000/svg">
  <path d="M -5 -0.605 L -5 20.605 C -5 23.029 -3.029 25 -0.605 25 L 20.605 25 C 23.029 25 25 23.029 25 20.605 L 25 11.758 L 14.395 11.758 L 14.395 15.274 L 9.121 15.274 L 9.121 11.758 L 5.546 11.758 C 2.639 11.758 0.274 9.392 0.274 6.484 L 0.274 1.153 L 5.546 1.153 L 5.546 6.484 L 9.121 6.484 L 9.121 1.153 L 14.395 2.032 L 14.395 6.484 L 25 6.484 L 25 -0.605 C 25 -3.029 23.029 -5 20.605 -5 L -0.605 -5 C -3.029 -5 -5 -3.029 -5 -0.605 Z" fill="black" style="transform-box: fill-box; transform-origin: 50% 50%;" transform="matrix(0, 1, -1, 0, -0.000002, 0)"/>
</svg>